<svg width="109" height="26" viewBox="0 0 109 26" fill="none" xmlns="http://www.w3.org/2000/svg">
<line x1="2" y1="5" x2="2" y2="21" stroke="white" stroke-width="4" stroke-linecap="round"/>
<line x1="12" y1="7" x2="12" y2="19" stroke="white" stroke-width="4" stroke-linecap="round"/>
<line x1="22" y1="9" x2="22" y2="17" stroke="white" stroke-width="4" stroke-linecap="round"/>
<path d="M41.7305 16.123H43.0518C42.9443 17.1758 42.6543 18.0853 42.1816 18.8516C41.709 19.6107 41.0645 20.1943 40.248 20.6025C39.4316 21.0107 38.4469 21.2148 37.2939 21.2148C36.4059 21.2148 35.6003 21.0465 34.877 20.71C34.1608 20.3734 33.5449 19.8971 33.0293 19.2812C32.5137 18.6582 32.1162 17.9134 31.8369 17.0469C31.5576 16.1803 31.418 15.2171 31.418 14.1572V12.2021C31.418 11.1423 31.5576 10.1826 31.8369 9.32324C32.1162 8.45671 32.5173 7.71191 33.04 7.08887C33.5628 6.46582 34.1895 5.986 34.9199 5.64941C35.6504 5.31283 36.474 5.14453 37.3906 5.14453C38.5007 5.14453 39.4603 5.34863 40.2695 5.75684C41.0788 6.15788 41.7161 6.73796 42.1816 7.49707C42.6543 8.25618 42.9443 9.17285 43.0518 10.2471H41.7305C41.6302 9.40202 41.4082 8.68587 41.0645 8.09863C40.7207 7.51139 40.2445 7.0638 39.6357 6.75586C39.0342 6.44076 38.2858 6.2832 37.3906 6.2832C36.6602 6.2832 36.0085 6.42285 35.4355 6.70215C34.8626 6.98145 34.3757 7.38249 33.9746 7.90527C33.5736 8.4209 33.2656 9.04036 33.0508 9.76367C32.8431 10.487 32.7393 11.2926 32.7393 12.1807V14.1572C32.7393 15.0166 32.8395 15.8079 33.04 16.5312C33.2406 17.2546 33.5342 17.8812 33.9209 18.4111C34.3148 18.9411 34.7946 19.3529 35.3604 19.6465C35.9261 19.9401 36.5706 20.0869 37.2939 20.0869C38.2178 20.0869 38.9876 19.9401 39.6035 19.6465C40.2266 19.3457 40.71 18.9017 41.0537 18.3145C41.3975 17.7272 41.623 16.9967 41.7305 16.123ZM47.4023 9.37695V21H46.124V9.37695H47.4023ZM45.8984 6.01465C45.8984 5.77116 45.9736 5.56706 46.124 5.40234C46.2816 5.23047 46.4964 5.14453 46.7686 5.14453C47.0407 5.14453 47.2555 5.23047 47.4131 5.40234C47.5778 5.56706 47.6602 5.77116 47.6602 6.01465C47.6602 6.25098 47.5778 6.45508 47.4131 6.62695C47.2555 6.79167 47.0407 6.87402 46.7686 6.87402C46.4964 6.87402 46.2816 6.79167 46.124 6.62695C45.9736 6.45508 45.8984 6.25098 45.8984 6.01465ZM55.3086 9.37695V10.4297H49.4863V9.37695H55.3086ZM51.624 6.39062H52.9023V18.1748C52.9023 18.7119 52.974 19.1165 53.1172 19.3887C53.2604 19.6608 53.4466 19.8434 53.6758 19.9365C53.9049 20.0296 54.152 20.0762 54.417 20.0762C54.6104 20.0762 54.7965 20.0654 54.9756 20.0439C55.1546 20.0153 55.3158 19.9867 55.459 19.958L55.5127 21.043C55.3551 21.0931 55.151 21.1325 54.9004 21.1611C54.6497 21.1969 54.3991 21.2148 54.1484 21.2148C53.6543 21.2148 53.2174 21.1253 52.8379 20.9463C52.4583 20.7601 52.1611 20.445 51.9463 20.001C51.7314 19.5498 51.624 18.9375 51.624 18.1641V6.39062ZM61.4531 19.8398L65.0732 9.37695H66.459L61.5391 22.8691C61.4388 23.1341 61.3099 23.4277 61.1523 23.75C61.002 24.0723 60.8014 24.3802 60.5508 24.6738C60.3073 24.9746 59.9993 25.2181 59.627 25.4043C59.2617 25.5977 58.8141 25.6943 58.2842 25.6943C58.1481 25.6943 57.9727 25.6764 57.7578 25.6406C57.5501 25.612 57.3997 25.5833 57.3066 25.5547L57.2959 24.4697C57.3747 24.4912 57.4893 24.5091 57.6396 24.5234C57.79 24.5378 57.8939 24.5449 57.9512 24.5449C58.4167 24.5449 58.807 24.4661 59.1221 24.3086C59.4443 24.151 59.7129 23.9147 59.9277 23.5996C60.1426 23.2917 60.3324 22.9049 60.4971 22.4395L61.4531 19.8398ZM58.0693 9.37695L61.7754 19.3564L62.1191 20.6992L61.1846 21.2256L56.6729 9.37695H58.0693ZM78.168 18.8623V21H70.3154V18.8623H78.168ZM71.0674 5.35938V21H68.3711V5.35938H71.0674ZM82.7656 9.37695V21H80.166V9.37695H82.7656ZM79.9941 6.32617C79.9941 5.93229 80.123 5.60645 80.3809 5.34863C80.6458 5.08366 81.0111 4.95117 81.4766 4.95117C81.9349 4.95117 82.2965 5.08366 82.5615 5.34863C82.8265 5.60645 82.959 5.93229 82.959 6.32617C82.959 6.71289 82.8265 7.03516 82.5615 7.29297C82.2965 7.55078 81.9349 7.67969 81.4766 7.67969C81.0111 7.67969 80.6458 7.55078 80.3809 7.29297C80.123 7.03516 79.9941 6.71289 79.9941 6.32617ZM88.1689 11.8584V21H85.5801V9.37695H88.0186L88.1689 11.8584ZM87.707 14.7588L86.8691 14.748C86.8763 13.9245 86.9909 13.1689 87.2129 12.4814C87.4421 11.7939 87.7572 11.2031 88.1582 10.709C88.5664 10.2148 89.0534 9.83529 89.6191 9.57031C90.1849 9.29818 90.8151 9.16211 91.5098 9.16211C92.0684 9.16211 92.5732 9.24089 93.0244 9.39844C93.4827 9.54883 93.873 9.7959 94.1953 10.1396C94.5247 10.4834 94.7754 10.931 94.9473 11.4824C95.1191 12.0267 95.2051 12.6963 95.2051 13.4912V21H92.6055V13.4805C92.6055 12.9219 92.5231 12.4814 92.3584 12.1592C92.2008 11.8298 91.9681 11.597 91.6602 11.4609C91.3594 11.3177 90.9834 11.2461 90.5322 11.2461C90.0882 11.2461 89.6908 11.3392 89.3398 11.5254C88.9889 11.7116 88.6917 11.9658 88.4482 12.2881C88.2119 12.6104 88.0293 12.9827 87.9004 13.4053C87.7715 13.8278 87.707 14.279 87.707 14.7588ZM100.458 4.5V21H97.8584V4.5H100.458ZM107.677 9.37695L102.617 14.9844L99.8457 17.8203L99.1689 15.6289L101.264 13.04L104.551 9.37695H107.677ZM105.109 21L101.339 15.543L102.972 13.7275L108.106 21H105.109Z" fill="white"/>
</svg>
